<?xml version="1.0" encoding="utf-8" standalone="no"?>
<!DOCTYPE svg PUBLIC "-//W3C//DTD SVG 1.1//EN"
  "http://www.w3.org/Graphics/SVG/1.1/DTD/svg11.dtd">
<svg xmlns:xlink="http://www.w3.org/1999/xlink" width="271.70875pt" height="207.90775pt" viewBox="0 0 271.70875 207.90775" xmlns="http://www.w3.org/2000/svg" version="1.1">
 <metadata>
  <rdf:RDF xmlns:dc="http://purl.org/dc/elements/1.1/" xmlns:cc="http://creativecommons.org/ns#" xmlns:rdf="http://www.w3.org/1999/02/22-rdf-syntax-ns#">
   <cc:Work>
    <dc:type rdf:resource="http://purl.org/dc/dcmitype/StillImage"/>
    <dc:date>2026-06-05T12:02:57.952464</dc:date>
    <dc:format>image/svg+xml</dc:format>
    <dc:creator>
     <cc:Agent>
      <dc:title>Matplotlib v3.10.9, https://matplotlib.org/</dc:title>
     </cc:Agent>
    </dc:creator>
   </cc:Work>
  </rdf:RDF>
 </metadata>
 <defs>
  <style type="text/css">*{stroke-linejoin: round; stroke-linecap: butt}</style>
 </defs>
 <g id="figure_1">
  <g id="patch_1">
   <path d="M 0 207.90775 
L 271.70875 207.90775 
L 271.70875 0 
L 0 0 
z
" style="fill: #ffffff"/>
  </g>
  <g id="axes_1">
   <g id="patch_2">
    <path d="M 41.30875 186.3915 
L 264.50875 186.3915 
L 264.50875 20.0715 
L 41.30875 20.0715 
z
" style="fill: #ffffff"/>
   </g>
   <g id="FillBetweenPolyCollection_1">
    <defs>
     <path id="m29000361cc" d="M 67.615663 -29.07625 
L 64.279759 -29.07625 
L 64.095818 -29.793587 
L 63.902899 -30.510925 
L 63.701554 -31.228262 
L 63.492399 -31.945599 
L 63.276101 -32.662936 
L 63.05336 -33.380274 
L 62.82488 -34.097611 
L 62.591323 -34.814948 
L 62.353261 -35.532286 
L 62.111106 -36.249623 
L 61.86506 -36.96696 
L 61.615047 -37.684298 
L 61.360679 -38.401635 
L 61.101228 -39.118972 
L 60.835636 -39.836309 
L 60.562549 -40.553647 
L 60.280396 -41.270984 
L 59.987492 -41.988321 
L 59.68218 -42.705659 
L 59.362993 -43.422996 
L 59.028833 -44.140333 
L 58.679144 -44.857671 
L 58.314079 -45.575008 
L 57.934632 -46.292345 
L 57.542724 -47.009682 
L 57.141234 -47.72702 
L 56.733959 -48.444357 
L 56.325502 -49.161694 
L 55.921086 -49.879032 
L 55.526314 -50.596369 
L 55.14687 -51.313706 
L 54.788204 -52.031044 
L 54.455211 -52.748381 
L 54.151929 -53.465718 
L 53.881291 -54.183055 
L 53.644939 -54.900393 
L 53.44313 -55.61773 
L 53.274723 -56.335067 
L 53.137256 -57.052405 
L 53.027118 -57.769742 
L 52.939771 -58.487079 
L 52.870034 -59.204417 
L 52.812392 -59.921754 
L 52.761312 -60.639091 
L 52.711545 -61.356428 
L 52.658405 -62.073766 
L 52.598007 -62.791103 
L 52.527456 -63.50844 
L 52.444988 -64.225778 
L 52.350069 -64.943115 
L 52.243445 -65.660452 
L 52.127148 -66.37779 
L 52.004475 -67.095127 
L 51.879921 -67.812464 
L 51.759081 -68.529801 
L 51.64851 -69.247139 
L 51.555542 -69.964476 
L 51.488058 -70.681813 
L 51.454205 -71.399151 
L 51.462062 -72.116488 
L 51.519279 -72.833825 
L 51.632671 -73.551163 
L 51.807823 -74.2685 
L 52.048709 -74.985837 
L 52.357366 -75.703174 
L 52.73365 -76.420512 
L 53.175103 -77.137849 
L 53.676945 -77.855186 
L 54.232205 -78.572524 
L 54.831991 -79.289861 
L 55.46587 -80.007198 
L 56.12235 -80.724536 
L 56.789418 -81.441873 
L 57.455095 -82.15921 
L 58.107974 -82.876547 
L 58.737697 -83.593885 
L 59.335354 -84.311222 
L 59.893767 -85.028559 
L 60.407666 -85.745897 
L 60.873748 -86.463234 
L 61.29063 -87.180571 
L 61.658711 -87.897908 
L 61.97997 -88.615246 
L 62.257702 -89.332583 
L 62.496238 -90.04992 
L 62.700645 -90.767258 
L 62.876426 -91.484595 
L 63.029247 -92.201932 
L 63.164675 -92.91927 
L 63.287955 -93.636607 
L 63.403822 -94.353944 
L 63.516347 -95.071281 
L 63.628837 -95.788619 
L 63.743768 -96.505956 
L 63.86277 -97.223293 
L 63.986648 -97.940631 
L 64.11545 -98.657968 
L 64.248562 -99.375305 
L 64.384829 -100.092643 
L 67.510593 -100.092643 
L 67.510593 -100.092643 
L 67.646861 -99.375305 
L 67.779972 -98.657968 
L 67.908774 -97.940631 
L 68.032653 -97.223293 
L 68.151654 -96.505956 
L 68.266585 -95.788619 
L 68.379075 -95.071281 
L 68.4916 -94.353944 
L 68.607467 -93.636607 
L 68.730747 -92.91927 
L 68.866175 -92.201932 
L 69.018996 -91.484595 
L 69.194777 -90.767258 
L 69.399184 -90.04992 
L 69.63772 -89.332583 
L 69.915452 -88.615246 
L 70.236711 -87.897908 
L 70.604792 -87.180571 
L 71.021674 -86.463234 
L 71.487756 -85.745897 
L 72.001656 -85.028559 
L 72.560069 -84.311222 
L 73.157725 -83.593885 
L 73.787449 -82.876547 
L 74.440327 -82.15921 
L 75.106004 -81.441873 
L 75.773072 -80.724536 
L 76.429552 -80.007198 
L 77.063431 -79.289861 
L 77.663217 -78.572524 
L 78.218477 -77.855186 
L 78.720319 -77.137849 
L 79.161772 -76.420512 
L 79.538056 -75.703174 
L 79.846713 -74.985837 
L 80.087599 -74.2685 
L 80.262751 -73.551163 
L 80.376143 -72.833825 
L 80.43336 -72.116488 
L 80.441218 -71.399151 
L 80.407364 -70.681813 
L 80.33988 -69.964476 
L 80.246912 -69.247139 
L 80.136341 -68.529801 
L 80.015501 -67.812464 
L 79.890947 -67.095127 
L 79.768274 -66.37779 
L 79.651978 -65.660452 
L 79.545353 -64.943115 
L 79.450435 -64.225778 
L 79.367966 -63.50844 
L 79.297415 -62.791103 
L 79.237017 -62.073766 
L 79.183878 -61.356428 
L 79.13411 -60.639091 
L 79.08303 -59.921754 
L 79.025388 -59.204417 
L 78.955651 -58.487079 
L 78.868304 -57.769742 
L 78.758166 -57.052405 
L 78.620699 -56.335067 
L 78.452292 -55.61773 
L 78.250483 -54.900393 
L 78.014132 -54.183055 
L 77.743493 -53.465718 
L 77.440211 -52.748381 
L 77.107218 -52.031044 
L 76.748553 -51.313706 
L 76.369108 -50.596369 
L 75.974336 -49.879032 
L 75.56992 -49.161694 
L 75.161463 -48.444357 
L 74.754188 -47.72702 
L 74.352698 -47.009682 
L 73.960791 -46.292345 
L 73.581343 -45.575008 
L 73.216278 -44.857671 
L 72.866589 -44.140333 
L 72.532429 -43.422996 
L 72.213242 -42.705659 
L 71.90793 -41.988321 
L 71.615026 -41.270984 
L 71.332873 -40.553647 
L 71.059786 -39.836309 
L 70.794194 -39.118972 
L 70.534743 -38.401635 
L 70.280375 -37.684298 
L 70.030362 -36.96696 
L 69.784316 -36.249623 
L 69.542161 -35.532286 
L 69.304099 -34.814948 
L 69.070542 -34.097611 
L 68.842062 -33.380274 
L 68.619321 -32.662936 
L 68.403023 -31.945599 
L 68.193868 -31.228262 
L 67.992523 -30.510925 
L 67.799604 -29.793587 
L 67.615663 -29.07625 
z
" style="stroke: #2a2a2a; stroke-opacity: 0.72"/>
    </defs>
    <g clip-path="url(#pf7458f4065)">
     <use xlink:href="#m29000361cc" x="0" y="207.90775" style="fill: #c3cbb2; fill-opacity: 0.72; stroke: #2a2a2a; stroke-opacity: 0.72"/>
    </g>
   </g>
   <g id="FillBetweenPolyCollection_2">
    <defs>
     <path id="m260011aa94" d="M 126.792074 -59.428865 
L 121.0514 -59.428865 
L 120.788339 -60.106016 
L 120.521583 -60.783168 
L 120.252678 -61.460319 
L 119.982938 -62.13747 
L 119.713383 -62.814622 
L 119.444701 -63.491773 
L 119.177233 -64.168924 
L 118.910974 -64.846076 
L 118.645589 -65.523227 
L 118.380464 -66.200378 
L 118.114746 -66.87753 
L 117.847415 -67.554681 
L 117.577347 -68.231832 
L 117.303383 -68.908984 
L 117.024387 -69.586135 
L 116.73931 -70.263286 
L 116.447236 -70.940438 
L 116.147421 -71.617589 
L 115.839332 -72.29474 
L 115.522671 -72.971891 
L 115.197406 -73.649043 
L 114.863786 -74.326194 
L 114.522371 -75.003345 
L 114.174047 -75.680497 
L 113.820043 -76.357648 
L 113.461946 -77.034799 
L 113.101703 -77.711951 
L 112.741612 -78.389102 
L 112.384304 -79.066253 
L 112.032704 -79.743405 
L 111.689981 -80.420556 
L 111.359479 -81.097707 
L 111.04464 -81.774859 
L 110.748922 -82.45201 
L 110.475713 -83.129161 
L 110.228247 -83.806313 
L 110.009532 -84.483464 
L 109.82229 -85.160615 
L 109.668908 -85.837767 
L 109.5514 -86.514918 
L 109.471384 -87.192069 
L 109.430068 -87.86922 
L 109.428231 -88.546372 
L 109.466211 -89.223523 
L 109.543894 -89.900674 
L 109.660685 -90.577826 
L 109.815497 -91.254977 
L 110.006718 -91.932128 
L 110.232206 -92.60928 
L 110.489275 -93.286431 
L 110.774711 -93.963582 
L 111.084805 -94.640734 
L 111.415407 -95.317885 
L 111.762018 -95.995036 
L 112.119891 -96.672188 
L 112.484163 -97.349339 
L 112.850003 -98.02649 
L 113.212752 -98.703642 
L 113.568076 -99.380793 
L 113.912098 -100.057944 
L 114.24151 -100.735096 
L 114.553663 -101.412247 
L 114.84662 -102.089398 
L 115.119183 -102.766549 
L 115.370882 -103.443701 
L 115.601943 -104.120852 
L 115.813222 -104.798003 
L 116.006126 -105.475155 
L 116.182523 -106.152306 
L 116.344639 -106.829457 
L 116.494964 -107.506609 
L 116.636146 -108.18376 
L 116.770907 -108.860911 
L 116.901961 -109.538063 
L 117.031935 -110.215214 
L 117.163312 -110.892365 
L 117.298373 -111.569517 
L 117.43915 -112.246668 
L 117.587392 -112.923819 
L 117.744527 -113.600971 
L 117.911643 -114.278122 
L 118.089468 -114.955273 
L 118.278366 -115.632425 
L 118.478332 -116.309576 
L 118.689006 -116.986727 
L 118.90969 -117.663878 
L 119.139379 -118.34103 
L 119.376795 -119.018181 
L 119.620435 -119.695332 
L 119.868622 -120.372484 
L 120.119557 -121.049635 
L 120.371374 -121.726786 
L 120.622197 -122.403938 
L 120.870184 -123.081089 
L 121.113579 -123.75824 
L 121.350743 -124.435392 
L 121.580191 -125.112543 
L 121.800608 -125.789694 
L 122.01087 -126.466846 
L 125.832604 -126.466846 
L 125.832604 -126.466846 
L 126.042866 -125.789694 
L 126.263283 -125.112543 
L 126.492731 -124.435392 
L 126.729895 -123.75824 
L 126.97329 -123.081089 
L 127.221277 -122.403938 
L 127.4721 -121.726786 
L 127.723917 -121.049635 
L 127.974852 -120.372484 
L 128.223039 -119.695332 
L 128.466679 -119.018181 
L 128.704095 -118.34103 
L 128.933784 -117.663878 
L 129.154468 -116.986727 
L 129.365142 -116.309576 
L 129.565108 -115.632425 
L 129.754006 -114.955273 
L 129.931831 -114.278122 
L 130.098947 -113.600971 
L 130.256082 -112.923819 
L 130.404324 -112.246668 
L 130.545101 -111.569517 
L 130.680162 -110.892365 
L 130.811539 -110.215214 
L 130.941513 -109.538063 
L 131.072567 -108.860911 
L 131.207328 -108.18376 
L 131.34851 -107.506609 
L 131.498835 -106.829457 
L 131.660951 -106.152306 
L 131.837348 -105.475155 
L 132.030252 -104.798003 
L 132.241531 -104.120852 
L 132.472592 -103.443701 
L 132.724291 -102.766549 
L 132.996854 -102.089398 
L 133.289811 -101.412247 
L 133.601964 -100.735096 
L 133.931376 -100.057944 
L 134.275398 -99.380793 
L 134.630722 -98.703642 
L 134.993471 -98.02649 
L 135.359311 -97.349339 
L 135.723583 -96.672188 
L 136.081456 -95.995036 
L 136.428067 -95.317885 
L 136.758669 -94.640734 
L 137.068763 -93.963582 
L 137.354199 -93.286431 
L 137.611268 -92.60928 
L 137.836756 -91.932128 
L 138.027977 -91.254977 
L 138.182789 -90.577826 
L 138.29958 -89.900674 
L 138.377263 -89.223523 
L 138.415244 -88.546372 
L 138.413406 -87.86922 
L 138.37209 -87.192069 
L 138.292074 -86.514918 
L 138.174566 -85.837767 
L 138.021184 -85.160615 
L 137.833942 -84.483464 
L 137.615227 -83.806313 
L 137.367761 -83.129161 
L 137.094552 -82.45201 
L 136.798834 -81.774859 
L 136.483995 -81.097707 
L 136.153493 -80.420556 
L 135.81077 -79.743405 
L 135.45917 -79.066253 
L 135.101862 -78.389102 
L 134.741772 -77.711951 
L 134.381528 -77.034799 
L 134.023431 -76.357648 
L 133.669427 -75.680497 
L 133.321103 -75.003345 
L 132.979688 -74.326194 
L 132.646068 -73.649043 
L 132.320803 -72.971891 
L 132.004142 -72.29474 
L 131.696053 -71.617589 
L 131.396238 -70.940438 
L 131.104164 -70.263286 
L 130.819087 -69.586135 
L 130.540092 -68.908984 
L 130.266127 -68.231832 
L 129.996059 -67.554681 
L 129.728729 -66.87753 
L 129.46301 -66.200378 
L 129.197885 -65.523227 
L 128.9325 -64.846076 
L 128.666241 -64.168924 
L 128.398773 -63.491773 
L 128.130091 -62.814622 
L 127.860536 -62.13747 
L 127.590796 -61.460319 
L 127.321891 -60.783168 
L 127.055135 -60.106016 
L 126.792074 -59.428865 
z
" style="stroke: #2a2a2a; stroke-opacity: 0.72"/>
    </defs>
    <g clip-path="url(#pf7458f4065)">
     <use xlink:href="#m260011aa94" x="0" y="207.90775" style="fill: #74815c; fill-opacity: 0.72; stroke: #2a2a2a; stroke-opacity: 0.72"/>
    </g>
   </g>
   <g id="FillBetweenPolyCollection_3">
    <defs>
     <path id="m73a11802dd" d="M 182.290518 -52.841316 
L 181.501008 -52.841316 
L 181.501898 -53.718234 
L 181.508768 -54.595152 
L 181.520512 -55.472071 
L 181.535549 -56.348989 
L 181.551895 -57.225907 
L 181.567272 -58.102825 
L 181.579217 -58.979744 
L 181.585208 -59.856662 
L 181.582782 -60.73358 
L 181.569636 -61.610499 
L 181.543716 -62.487417 
L 181.503291 -63.364335 
L 181.446999 -64.241253 
L 181.373885 -65.118172 
L 181.28341 -65.99509 
L 181.175448 -66.872008 
L 181.050262 -67.748927 
L 180.908459 -68.625845 
L 180.750927 -69.502763 
L 180.578755 -70.379681 
L 180.393142 -71.2566 
L 180.195294 -72.133518 
L 179.986328 -73.010436 
L 179.767192 -73.887355 
L 179.538598 -74.764273 
L 179.300999 -75.641191 
L 179.054601 -76.518109 
L 178.799418 -77.395028 
L 178.535369 -78.271946 
L 178.262395 -79.148864 
L 177.980595 -80.025783 
L 177.690348 -80.902701 
L 177.392394 -81.779619 
L 177.087866 -82.656537 
L 176.778236 -83.533456 
L 176.465192 -84.410374 
L 176.150426 -85.287292 
L 175.835381 -86.16421 
L 175.520969 -87.041129 
L 175.207316 -87.918047 
L 174.893583 -88.794965 
L 174.5779 -89.671884 
L 174.257449 -90.548802 
L 173.928715 -91.42572 
L 173.587892 -92.302638 
L 173.231398 -93.179557 
L 172.856458 -94.056475 
L 172.461667 -94.933393 
L 172.047458 -95.810312 
L 171.616386 -96.68723 
L 171.173195 -97.564148 
L 170.724614 -98.441066 
L 170.278909 -99.317985 
L 169.845228 -100.194903 
L 169.432813 -101.071821 
L 169.050191 -101.94874 
L 168.704426 -102.825658 
L 168.400552 -103.702576 
L 168.14125 -104.579494 
L 167.926808 -105.456413 
L 167.755365 -106.333331 
L 167.623415 -107.210249 
L 167.526478 -108.087168 
L 167.459869 -108.964086 
L 167.419446 -109.841004 
L 167.402256 -110.717922 
L 167.406984 -111.594841 
L 167.434163 -112.471759 
L 167.486124 -113.348677 
L 167.566692 -114.225596 
L 167.680681 -115.102514 
L 167.833249 -115.979432 
L 168.029199 -116.85635 
L 168.272316 -117.733269 
L 168.564819 -118.610187 
L 168.90698 -119.487105 
L 169.296972 -120.364024 
L 169.730936 -121.240942 
L 170.203258 -122.11786 
L 170.707021 -122.994778 
L 171.234557 -123.871697 
L 171.778042 -124.748615 
L 172.330058 -125.625533 
L 172.884047 -126.502451 
L 173.434633 -127.37937 
L 173.977763 -128.256288 
L 174.510679 -129.133206 
L 175.031744 -130.010125 
L 175.540146 -130.887043 
L 176.03556 -131.763961 
L 176.517795 -132.640879 
L 176.986497 -133.517798 
L 177.440937 -134.394716 
L 177.879907 -135.271634 
L 178.301731 -136.148553 
L 178.704364 -137.025471 
L 179.085571 -137.902389 
L 179.443136 -138.779307 
L 179.775068 -139.656226 
L 184.016458 -139.656226 
L 184.016458 -139.656226 
L 184.34839 -138.779307 
L 184.705955 -137.902389 
L 185.087162 -137.025471 
L 185.489795 -136.148553 
L 185.911619 -135.271634 
L 186.350589 -134.394716 
L 186.805029 -133.517798 
L 187.273731 -132.640879 
L 187.755966 -131.763961 
L 188.25138 -130.887043 
L 188.759782 -130.010125 
L 189.280847 -129.133206 
L 189.813763 -128.256288 
L 190.356893 -127.37937 
L 190.907479 -126.502451 
L 191.461468 -125.625533 
L 192.013484 -124.748615 
L 192.556969 -123.871697 
L 193.084505 -122.994778 
L 193.588268 -122.11786 
L 194.06059 -121.240942 
L 194.494554 -120.364024 
L 194.884546 -119.487105 
L 195.226707 -118.610187 
L 195.51921 -117.733269 
L 195.762327 -116.85635 
L 195.958277 -115.979432 
L 196.110845 -115.102514 
L 196.224834 -114.225596 
L 196.305402 -113.348677 
L 196.357363 -112.471759 
L 196.384542 -111.594841 
L 196.389269 -110.717922 
L 196.37208 -109.841004 
L 196.331657 -108.964086 
L 196.265048 -108.087168 
L 196.168111 -107.210249 
L 196.036161 -106.333331 
L 195.864718 -105.456413 
L 195.650276 -104.579494 
L 195.390974 -103.702576 
L 195.0871 -102.825658 
L 194.741335 -101.94874 
L 194.358713 -101.071821 
L 193.946298 -100.194903 
L 193.512617 -99.317985 
L 193.066912 -98.441066 
L 192.618331 -97.564148 
L 192.17514 -96.68723 
L 191.744068 -95.810312 
L 191.329859 -94.933393 
L 190.935068 -94.056475 
L 190.560128 -93.179557 
L 190.203634 -92.302638 
L 189.862811 -91.42572 
L 189.534077 -90.548802 
L 189.213626 -89.671884 
L 188.897942 -88.794965 
L 188.58421 -87.918047 
L 188.270557 -87.041129 
L 187.956145 -86.16421 
L 187.6411 -85.287292 
L 187.326334 -84.410374 
L 187.01329 -83.533456 
L 186.70366 -82.656537 
L 186.399132 -81.779619 
L 186.101178 -80.902701 
L 185.810931 -80.025783 
L 185.529131 -79.148864 
L 185.256157 -78.271946 
L 184.992108 -77.395028 
L 184.736925 -76.518109 
L 184.490527 -75.641191 
L 184.252928 -74.764273 
L 184.024334 -73.887355 
L 183.805198 -73.010436 
L 183.596232 -72.133518 
L 183.398384 -71.2566 
L 183.21277 -70.379681 
L 183.040599 -69.502763 
L 182.883067 -68.625845 
L 182.741263 -67.748927 
L 182.616078 -66.872008 
L 182.508116 -65.99509 
L 182.417641 -65.118172 
L 182.344527 -64.241253 
L 182.288235 -63.364335 
L 182.24781 -62.487417 
L 182.22189 -61.610499 
L 182.208744 -60.73358 
L 182.206318 -59.856662 
L 182.212309 -58.979744 
L 182.224254 -58.102825 
L 182.239631 -57.225907 
L 182.255977 -56.348989 
L 182.271014 -55.472071 
L 182.282758 -54.595152 
L 182.289628 -53.718234 
L 182.290518 -52.841316 
z
" style="stroke: #2a2a2a; stroke-opacity: 0.72"/>
    </defs>
    <g clip-path="url(#pf7458f4065)">
     <use xlink:href="#m73a11802dd" x="0" y="207.90775" style="fill: #2c3c31; fill-opacity: 0.72; stroke: #2a2a2a; stroke-opacity: 0.72"/>
    </g>
   </g>
   <g id="FillBetweenPolyCollection_4">
    <defs>
     <path id="m6a17ea6dba" d="M 240.913518 -75.426873 
L 238.82606 -75.426873 
L 238.772225 -76.485958 
L 238.734859 -77.545042 
L 238.712658 -78.604127 
L 238.702318 -79.663211 
L 238.69872 -80.722296 
L 238.695346 -81.781381 
L 238.684868 -82.840465 
L 238.659859 -83.89955 
L 238.613509 -84.958635 
L 238.540275 -86.017719 
L 238.436374 -87.076804 
L 238.300052 -88.135888 
L 238.131612 -89.194973 
L 237.933188 -90.254058 
L 237.708291 -91.313142 
L 237.461201 -92.372227 
L 237.196257 -93.431311 
L 236.917155 -94.490396 
L 236.626336 -95.549481 
L 236.324551 -96.608565 
L 236.01066 -97.66765 
L 235.681722 -98.726735 
L 235.333356 -99.785819 
L 234.960349 -100.844904 
L 234.557435 -101.903988 
L 234.120154 -102.963073 
L 233.645653 -104.022158 
L 233.133337 -105.081242 
L 232.585252 -106.140327 
L 232.006165 -107.199411 
L 231.403303 -108.258496 
L 230.78583 -109.317581 
L 230.164126 -110.376665 
L 229.549012 -111.43575 
L 228.951024 -112.494835 
L 228.379855 -113.553919 
L 227.843992 -114.613004 
L 227.350567 -115.672088 
L 226.905358 -116.731173 
L 226.512877 -117.790258 
L 226.176468 -118.849342 
L 225.898366 -119.908427 
L 225.679721 -120.967511 
L 225.520609 -122.026596 
L 225.420078 -123.085681 
L 225.376282 -124.144765 
L 225.386719 -125.20385 
L 225.448556 -126.262935 
L 225.558997 -127.322019 
L 225.715616 -128.381104 
L 225.91659 -129.440188 
L 226.160795 -130.499273 
L 226.44774 -131.558358 
L 226.777381 -132.617442 
L 227.14985 -133.676527 
L 227.565162 -134.735611 
L 228.022928 -135.794696 
L 228.522122 -136.853781 
L 229.060885 -137.912865 
L 229.636368 -138.97195 
L 230.244606 -140.031035 
L 230.880418 -141.090119 
L 231.537364 -142.149204 
L 232.207769 -143.208288 
L 232.882869 -144.267373 
L 233.553093 -145.326458 
L 234.208482 -146.385542 
L 234.83923 -147.444627 
L 235.436288 -148.503712 
L 235.991957 -149.562796 
L 236.500398 -150.621881 
L 236.957976 -151.680965 
L 237.363395 -152.74005 
L 237.71761 -153.799135 
L 238.023524 -154.858219 
L 238.285527 -155.917304 
L 238.50893 -156.976388 
L 238.69939 -158.035473 
L 238.862381 -159.094558 
L 239.002767 -160.153642 
L 239.124528 -161.212727 
L 239.230631 -162.271812 
L 239.323041 -163.330896 
L 239.402854 -164.389981 
L 239.470512 -165.449065 
L 239.526047 -166.50815 
L 239.569348 -167.567235 
L 239.600395 -168.626319 
L 239.619458 -169.685404 
L 239.627232 -170.744488 
L 239.624919 -171.803573 
L 239.614234 -172.862658 
L 239.597351 -173.921742 
L 239.576786 -174.980827 
L 239.555228 -176.039912 
L 239.53534 -177.098996 
L 239.51954 -178.158081 
L 239.509802 -179.217165 
L 239.507492 -180.27625 
L 240.232086 -180.27625 
L 240.232086 -180.27625 
L 240.229776 -179.217165 
L 240.220038 -178.158081 
L 240.204238 -177.098996 
L 240.18435 -176.039912 
L 240.162792 -174.980827 
L 240.142227 -173.921742 
L 240.125344 -172.862658 
L 240.114659 -171.803573 
L 240.112346 -170.744488 
L 240.12012 -169.685404 
L 240.139182 -168.626319 
L 240.17023 -167.567235 
L 240.213531 -166.50815 
L 240.269066 -165.449065 
L 240.336724 -164.389981 
L 240.416537 -163.330896 
L 240.508947 -162.271812 
L 240.615049 -161.212727 
L 240.736811 -160.153642 
L 240.877197 -159.094558 
L 241.040188 -158.035473 
L 241.230648 -156.976388 
L 241.454051 -155.917304 
L 241.716054 -154.858219 
L 242.021968 -153.799135 
L 242.376183 -152.74005 
L 242.781602 -151.680965 
L 243.23918 -150.621881 
L 243.747621 -149.562796 
L 244.30329 -148.503712 
L 244.900348 -147.444627 
L 245.531096 -146.385542 
L 246.186485 -145.326458 
L 246.856709 -144.267373 
L 247.531809 -143.208288 
L 248.202214 -142.149204 
L 248.85916 -141.090119 
L 249.494972 -140.031035 
L 250.10321 -138.97195 
L 250.678693 -137.912865 
L 251.217456 -136.853781 
L 251.71665 -135.794696 
L 252.174416 -134.735611 
L 252.589727 -133.676527 
L 252.962197 -132.617442 
L 253.291838 -131.558358 
L 253.578783 -130.499273 
L 253.822988 -129.440188 
L 254.023962 -128.381104 
L 254.180581 -127.322019 
L 254.291022 -126.262935 
L 254.352859 -125.20385 
L 254.363295 -124.144765 
L 254.319499 -123.085681 
L 254.218969 -122.026596 
L 254.059857 -120.967511 
L 253.841212 -119.908427 
L 253.56311 -118.849342 
L 253.226701 -117.790258 
L 252.83422 -116.731173 
L 252.389011 -115.672088 
L 251.895586 -114.613004 
L 251.359723 -113.553919 
L 250.788554 -112.494835 
L 250.190566 -111.43575 
L 249.575452 -110.376665 
L 248.953748 -109.317581 
L 248.336275 -108.258496 
L 247.733413 -107.199411 
L 247.154326 -106.140327 
L 246.606241 -105.081242 
L 246.093925 -104.022158 
L 245.619424 -102.963073 
L 245.182143 -101.903988 
L 244.779229 -100.844904 
L 244.406222 -99.785819 
L 244.057856 -98.726735 
L 243.728918 -97.66765 
L 243.415027 -96.608565 
L 243.113241 -95.549481 
L 242.822423 -94.490396 
L 242.543321 -93.431311 
L 242.278377 -92.372227 
L 242.031287 -91.313142 
L 241.80639 -90.254058 
L 241.607966 -89.194973 
L 241.439526 -88.135888 
L 241.303204 -87.076804 
L 241.199303 -86.017719 
L 241.126069 -84.958635 
L 241.079719 -83.89955 
L 241.05471 -82.840465 
L 241.044232 -81.781381 
L 241.040857 -80.722296 
L 241.03726 -79.663211 
L 241.02692 -78.604127 
L 241.004719 -77.545042 
L 240.967353 -76.485958 
L 240.913518 -75.426873 
z
" style="stroke: #2a2a2a; stroke-opacity: 0.72"/>
    </defs>
    <g clip-path="url(#pf7458f4065)">
     <use xlink:href="#m6a17ea6dba" x="0" y="207.90775" style="fill: #00202a; fill-opacity: 0.72; stroke: #2a2a2a; stroke-opacity: 0.72"/>
    </g>
   </g>
   <g id="matplotlib.axis_1">
    <g id="xtick_1">
     <g id="line2d_1">
      <defs>
       <path id="m95d89c94d8" d="M 0 0 
L 0 3.5 
" style="stroke: #000000; stroke-width: 0.8"/>
      </defs>
      <g>
       <use xlink:href="#m95d89c94d8" x="65.947711" y="186.3915" style="stroke: #000000; stroke-width: 0.8"/>
      </g>
     </g>
     <g id="text_1">
      <text style="font-size: 8px; font-family: 'Arial', 'DejaVu Sans', 'Liberation Sans', sans-serif; text-anchor: middle" x="65.947711" y="199.11775" transform="rotate(-0 65.947711 199.11775)">A</text>
     </g>
    </g>
    <g id="xtick_2">
     <g id="line2d_2">
      <g>
       <use xlink:href="#m95d89c94d8" x="123.921737" y="186.3915" style="stroke: #000000; stroke-width: 0.8"/>
      </g>
     </g>
     <g id="text_2">
      <text style="font-size: 8px; font-family: 'Arial', 'DejaVu Sans', 'Liberation Sans', sans-serif; text-anchor: middle" x="123.921737" y="199.11775" transform="rotate(-0 123.921737 199.11775)">B</text>
     </g>
    </g>
    <g id="xtick_3">
     <g id="line2d_3">
      <g>
       <use xlink:href="#m95d89c94d8" x="181.895763" y="186.3915" style="stroke: #000000; stroke-width: 0.8"/>
      </g>
     </g>
     <g id="text_3">
      <text style="font-size: 8px; font-family: 'Arial', 'DejaVu Sans', 'Liberation Sans', sans-serif; text-anchor: middle" x="181.895763" y="199.11775" transform="rotate(-0 181.895763 199.11775)">C</text>
     </g>
    </g>
    <g id="xtick_4">
     <g id="line2d_4">
      <g>
       <use xlink:href="#m95d89c94d8" x="239.869789" y="186.3915" style="stroke: #000000; stroke-width: 0.8"/>
      </g>
     </g>
     <g id="text_4">
      <text style="font-size: 8px; font-family: 'Arial', 'DejaVu Sans', 'Liberation Sans', sans-serif; text-anchor: middle" x="239.869789" y="199.11775" transform="rotate(-0 239.869789 199.11775)">D</text>
     </g>
    </g>
   </g>
   <g id="matplotlib.axis_2">
    <g id="ytick_1">
     <g id="line2d_5">
      <defs>
       <path id="mcb28543608" d="M 0 0 
L -3.5 0 
" style="stroke: #000000; stroke-width: 0.8"/>
      </defs>
      <g>
       <use xlink:href="#mcb28543608" x="41.30875" y="176.594978" style="stroke: #000000; stroke-width: 0.8"/>
      </g>
     </g>
     <g id="text_5">
      <text style="font-size: 8px; font-family: 'Arial', 'DejaVu Sans', 'Liberation Sans', sans-serif; text-anchor: end" x="34.30875" y="179.458103" transform="rotate(-0 34.30875 179.458103)">−0.5</text>
     </g>
    </g>
    <g id="ytick_2">
     <g id="line2d_6">
      <g>
       <use xlink:href="#mcb28543608" x="41.30875" y="152.211773" style="stroke: #000000; stroke-width: 0.8"/>
      </g>
     </g>
     <g id="text_6">
      <text style="font-size: 8px; font-family: 'Arial', 'DejaVu Sans', 'Liberation Sans', sans-serif; text-anchor: end" x="34.30875" y="155.074898" transform="rotate(-0 34.30875 155.074898)">0.0</text>
     </g>
    </g>
    <g id="ytick_3">
     <g id="line2d_7">
      <g>
       <use xlink:href="#mcb28543608" x="41.30875" y="127.828568" style="stroke: #000000; stroke-width: 0.8"/>
      </g>
     </g>
     <g id="text_7">
      <text style="font-size: 8px; font-family: 'Arial', 'DejaVu Sans', 'Liberation Sans', sans-serif; text-anchor: end" x="34.30875" y="130.691693" transform="rotate(-0 34.30875 130.691693)">0.5</text>
     </g>
    </g>
    <g id="ytick_4">
     <g id="line2d_8">
      <g>
       <use xlink:href="#mcb28543608" x="41.30875" y="103.445362" style="stroke: #000000; stroke-width: 0.8"/>
      </g>
     </g>
     <g id="text_8">
      <text style="font-size: 8px; font-family: 'Arial', 'DejaVu Sans', 'Liberation Sans', sans-serif; text-anchor: end" x="34.30875" y="106.308487" transform="rotate(-0 34.30875 106.308487)">1.0</text>
     </g>
    </g>
    <g id="ytick_5">
     <g id="line2d_9">
      <g>
       <use xlink:href="#mcb28543608" x="41.30875" y="79.062157" style="stroke: #000000; stroke-width: 0.8"/>
      </g>
     </g>
     <g id="text_9">
      <text style="font-size: 8px; font-family: 'Arial', 'DejaVu Sans', 'Liberation Sans', sans-serif; text-anchor: end" x="34.30875" y="81.925282" transform="rotate(-0 34.30875 81.925282)">1.5</text>
     </g>
    </g>
    <g id="ytick_6">
     <g id="line2d_10">
      <g>
       <use xlink:href="#mcb28543608" x="41.30875" y="54.678952" style="stroke: #000000; stroke-width: 0.8"/>
      </g>
     </g>
     <g id="text_10">
      <text style="font-size: 8px; font-family: 'Arial', 'DejaVu Sans', 'Liberation Sans', sans-serif; text-anchor: end" x="34.30875" y="57.542077" transform="rotate(-0 34.30875 57.542077)">2.0</text>
     </g>
    </g>
    <g id="ytick_7">
     <g id="line2d_11">
      <g>
       <use xlink:href="#mcb28543608" x="41.30875" y="30.295747" style="stroke: #000000; stroke-width: 0.8"/>
      </g>
     </g>
     <g id="text_11">
      <text style="font-size: 8px; font-family: 'Arial', 'DejaVu Sans', 'Liberation Sans', sans-serif; text-anchor: end" x="34.30875" y="33.158872" transform="rotate(-0 34.30875 33.158872)">2.5</text>
     </g>
    </g>
    <g id="text_12">
     <text style="font-size: 8px; font-family: 'Arial', 'DejaVu Sans', 'Liberation Sans', sans-serif; text-anchor: middle" x="12.92625" y="103.2315" transform="rotate(-90 12.92625 103.2315)">expression</text>
    </g>
   </g>
   <g id="LineCollection_1">
    <path d="M 58.700958 107.815107 
L 73.194464 107.815107 
" clip-path="url(#pf7458f4065)" style="fill: none; stroke: #2a2a2a; stroke-width: 0.8"/>
    <path d="M 116.674984 81.440904 
L 131.16849 81.440904 
" clip-path="url(#pf7458f4065)" style="fill: none; stroke: #2a2a2a; stroke-width: 0.8"/>
    <path d="M 174.64901 68.251524 
L 189.142516 68.251524 
" clip-path="url(#pf7458f4065)" style="fill: none; stroke: #2a2a2a; stroke-width: 0.8"/>
    <path d="M 232.623036 27.6315 
L 247.116542 27.6315 
" clip-path="url(#pf7458f4065)" style="fill: none; stroke: #2a2a2a; stroke-width: 0.8"/>
   </g>
   <g id="LineCollection_2">
    <path d="M 58.700958 178.8315 
L 73.194464 178.8315 
" clip-path="url(#pf7458f4065)" style="fill: none; stroke: #2a2a2a; stroke-width: 0.8"/>
    <path d="M 116.674984 148.478885 
L 131.16849 148.478885 
" clip-path="url(#pf7458f4065)" style="fill: none; stroke: #2a2a2a; stroke-width: 0.8"/>
    <path d="M 174.64901 155.066434 
L 189.142516 155.066434 
" clip-path="url(#pf7458f4065)" style="fill: none; stroke: #2a2a2a; stroke-width: 0.8"/>
    <path d="M 232.623036 132.480877 
L 247.116542 132.480877 
" clip-path="url(#pf7458f4065)" style="fill: none; stroke: #2a2a2a; stroke-width: 0.8"/>
   </g>
   <g id="LineCollection_3">
    <path d="M 65.947711 178.8315 
L 65.947711 107.815107 
" clip-path="url(#pf7458f4065)" style="fill: none; stroke: #2a2a2a; stroke-width: 0.8"/>
    <path d="M 123.921737 148.478885 
L 123.921737 81.440904 
" clip-path="url(#pf7458f4065)" style="fill: none; stroke: #2a2a2a; stroke-width: 0.8"/>
    <path d="M 181.895763 155.066434 
L 181.895763 68.251524 
" clip-path="url(#pf7458f4065)" style="fill: none; stroke: #2a2a2a; stroke-width: 0.8"/>
    <path d="M 239.869789 132.480877 
L 239.869789 27.6315 
" clip-path="url(#pf7458f4065)" style="fill: none; stroke: #2a2a2a; stroke-width: 0.8"/>
   </g>
   <g id="LineCollection_4">
    <path d="M 58.700958 142.133258 
L 73.194464 142.133258 
" clip-path="url(#pf7458f4065)" style="fill: none; stroke: #2a2a2a; stroke-width: 0.8"/>
    <path d="M 116.674984 117.393931 
L 131.16849 117.393931 
" clip-path="url(#pf7458f4065)" style="fill: none; stroke: #2a2a2a; stroke-width: 0.8"/>
    <path d="M 174.64901 99.713176 
L 189.142516 99.713176 
" clip-path="url(#pf7458f4065)" style="fill: none; stroke: #2a2a2a; stroke-width: 0.8"/>
    <path d="M 232.623036 85.020212 
L 247.116542 85.020212 
" clip-path="url(#pf7458f4065)" style="fill: none; stroke: #2a2a2a; stroke-width: 0.8"/>
   </g>
   <g id="patch_3">
    <path d="M 41.30875 186.3915 
L 41.30875 20.0715 
" style="fill: none; stroke: #000000; stroke-width: 0.8; stroke-linejoin: miter; stroke-linecap: square"/>
   </g>
   <g id="patch_4">
    <path d="M 41.30875 186.3915 
L 264.50875 186.3915 
" style="fill: none; stroke: #000000; stroke-width: 0.8; stroke-linejoin: miter; stroke-linecap: square"/>
   </g>
   <g id="text_13">
    <text style="font-size: 9.6px; font-family: 'Arial', 'DejaVu Sans', 'Liberation Sans', sans-serif; text-anchor: middle" x="152.90875" y="14.0715" transform="rotate(-0 152.90875 14.0715)">violin plot</text>
   </g>
  </g>
 </g>
 <defs>
  <clipPath id="pf7458f4065">
   <rect x="41.30875" y="20.0715" width="223.2" height="166.32"/>
  </clipPath>
 </defs>
</svg>
